<svg xmlns="http://www.w3.org/2000/svg" viewBox="186.3 259.9 222.3 91.3" width="222" height="91">
  <!-- RaceCor.io logomark — white with layered opacity -->
  <!-- Brightest layer (leftmost chevrons) -->
  <path fill="#ffffff" fill-opacity="1" d="M 351.220 349.621 L 379.380 349.621 L 407.550 305.336 L 407.550 304.696 L 380.580 260.864 L 350.020 260.864 L 380.990 305.816 L 351.220 349.621"/>
  <path fill="#ffffff" fill-opacity="1" d="M 273.069 260.865 L 244.909 260.865 L 244.829 260.991 L 238.201 260.865 L 223.054 284.604 L 230.116 284.121 L 224.515 290.898 L 206.444 290.898 L 187.274 306.227 L 215.647 305.615 L 216.739 305.789 L 243.709 349.620 L 271.270 349.620 L 244.299 304.669 L 273.069 260.865"/>
  <!-- Medium layer (center chevron) -->
  <path fill="#ffffff" fill-opacity="0.6" d="M 301.238 268.251 L 307.042 261.411 L 279.882 261.411 L 250.711 305.697 L 250.711 306.337 L 281.682 350.168 L 305.383 350.168 L 308.242 350.168 L 335.943 350.168 L 362.913 306.337 L 362.913 305.697 L 336.354 305.217 L 335.505 304.608 L 329.911 312.728 L 306.812 348.093 L 277.271 305.217 L 292.728 280.773"/>
  <!-- Darkest / most transparent layer (rightmost chevrons) -->
  <path fill="#ffffff" fill-opacity="0.3" d="M 377.846 260.865 L 349.686 260.865 L 321.516 305.150 L 321.516 305.789 L 348.486 349.622 L 379.046 349.622 L 348.076 304.669 L 377.846 260.865"/>
  <path fill="#ffffff" fill-opacity="0.3" d="M 314.477 304.670 L 329.855 282.042 L 302.617 282.042 L 287.917 305.150 L 287.917 305.790 L 314.887 349.621 L 345.447 349.621 L 314.477 304.670"/>
  <path fill="#ffffff" fill-opacity="0.3" d="M 344.248 260.865 L 316.088 260.865 L 305.482 277.539 L 332.916 277.539 L 344.248 260.865"/>
</svg>
