<svg xmlns="http://www.w3.org/2000/svg" width="124" height="33" viewBox="0 0 124 33" fill="none">
                  <rect y="0.341309" width="32.9381" height="32.0038" fill="
#EB0A1E"></rect> <path fill-rule="evenodd" clip-rule="evenodd" d="M62.5675 9.26599C59.7604 9.26599 57.2297 10.909 56.1555 13.4289C55.0813 15.9487 55.675 18.8492 57.66 20.7778C59.6449 22.7065 62.63 23.2834 65.2235 22.2396C67.8169 21.1959 69.5079 18.737 69.5079 16.0095C69.5079 12.2852 66.4006 9.26599 62.5675 9.26599ZM89.9555 9.26599C86.1224 9.26599 83.0151 12.2852 83.0151 16.0095C83.0151 19.7338 86.1224 22.753 89.9555 22.753C93.7885 22.753 96.8958 19.7338 96.8958 16.0095C96.8901 12.2875 93.7861 9.27154 89.9555 9.26599ZM117.011 9.69927H113.173L107.82 22.4706H111.15L112.364 19.3559H117.841L119.065 22.4706H122.344L117.011 9.69927ZM113.246 17.0879L115.082 12.3806L116.928 17.0879H113.246ZM86.034 16.0093C85.9102 18.2297 87.66 20.1283 89.945 20.2529H89.9554C91.0547 20.1956 92.0855 19.7163 92.8209 18.9204C93.5564 18.1245 93.9362 17.0773 93.8769 16.0093C94.0311 14.5544 93.3192 13.1412 92.0422 12.367C90.7651 11.5929 89.1458 11.5929 87.8687 12.367C86.5916 13.1412 85.8797 14.5544 86.034 16.0093ZM58.6565 16.0091C58.5328 18.2296 60.2826 20.1282 62.5676 20.2528C63.6669 20.1955 64.6977 19.7162 65.4331 18.9203C66.1686 18.1244 66.5484 17.0772 66.489 16.0091C66.6627 14.5451 65.9566 13.1141 64.673 12.3289C63.3895 11.5438 61.7561 11.5438 60.4726 12.3289C59.189 13.1141 58.4828 14.5451 58.6565 16.0091ZM76.3237 14.8703L79.7264 9.69927H82.9943L77.7346 17.7128V22.521H74.8506V17.7632L69.5805 9.69927H72.921L76.3237 14.8703ZM108.525 9.69927H97.2796V12.1487H101.429V22.4706H104.355V12.1487H108.505L108.525 9.69927ZM47.9399 12.1487H43.7902L43.7798 9.69927H55.0151V12.1487H50.8654V22.4706H47.9399V12.1487Z" fill="black"></path> <path fill-rule="evenodd" clip-rule="evenodd" d="M16.3613 9.266C10.147 9.273 5.396 12.3854 5.396 16.5336C5.396 20.6866 10.0333 23.7912 16.3823 23.7912C22.7313 23.7912 27.3167 20.5455 27.3167 16.5336C27.3167 12.5262 22.5654 9.27315 16.3613 9.266ZM16.3613 9.266L16.3408 9.26599H16.3823L16.3613 9.266ZM23.1774 12.3803C23.4161 13.2775 22.3371 14.3963 18.8825 14.7592C18.6543 12.4811 17.9592 10.5559 16.8077 10.1426C18.2745 10.1756 19.7271 10.4306 21.113 10.8986C22.3164 11.332 23.0633 11.9066 23.1878 12.3803H23.1774ZM16.3512 20.5859C17.1811 20.5859 18.0733 19.3864 18.0733 16.4935C17.5235 16.564 16.9529 16.564 16.3512 16.564C15.7495 16.564 15.1789 16.5439 14.6187 16.4935C14.6187 19.3864 15.5213 20.5859 16.3512 20.5859ZM16.3511 14.8801H14.7223C14.9921 12.9851 15.6871 11.8561 16.3511 11.8561C17.015 11.8561 17.6997 12.9548 17.9695 14.8801H16.3511ZM11.579 10.8986C10.3652 11.3724 9.61824 11.8965 9.50412 12.3803H9.53524C9.30701 13.2775 10.3756 14.3963 13.8302 14.7592C14.048 12.4811 14.7431 10.5559 15.905 10.1426C14.4314 10.1758 12.9721 10.4308 11.579 10.8986ZM7.01434 16.2717C7.00341 15.1193 7.41534 14.0008 8.17625 13.1167C8.26962 14.7396 10.5312 15.9492 13.7472 16.3725V16.4935C13.7472 20.4045 14.7846 22.481 15.9258 22.9144C11.0084 22.743 7.01434 19.7997 7.01434 16.2717ZM19.0174 16.4935C19.0174 20.2432 17.98 22.4709 16.8077 22.9144H16.8181C21.7458 22.7531 25.7502 19.7997 25.7502 16.2717C25.7612 15.1193 25.3493 14.0008 24.5883 13.1167C24.495 14.7396 22.2438 15.9492 19.0174 16.3725V16.4935Z" fill="white"></path>
                 </svg>