<?xml version="1.0" encoding="utf-8"?>
<svg xmlns="http://www.w3.org/2000/svg" viewBox="0 0 24 4">
    
  <path d="M12.64,2.91c0,.1-.04,.16-.17,.16h-.84c-.11,0-.17-.03-.17-.13s.04-.15,.17-.15h1.01v.12Zm3.69-.4v-.11c0-.1,.04-.16,.18-.16h.84c.12,0,.17,.03,.17,.14,0,.09-.05,.13-.16,.13h-1.03Zm2.2-.74v1.77h.85v-1.29h.69c.23,0,.35,.07,.35,.3v.99h.85v-1.06c0-.5-.27-.71-1.05-.71h-1.69Zm-2.08,0c-.68,0-.95,.23-.95,.74v.35c0,.44,.27,.68,.89,.68h1.79v-.47h-1.62c-.16,0-.22-.05-.22-.16v-.07h1.28c.44,0,.69-.14,.69-.47v-.08c0-.3-.15-.51-.9-.51h-.96Zm-2.72,1.76h.85v-1.16c0-.08,.03-.13,.13-.13h.66v-.48h-.94c-.5,0-.7,.19-.7,.5v1.26h0Zm-2.89-1.76v.47h1.59c.16,0,.21,.05,.21,.17v.07h-1.28c-.53,0-.7,.22-.7,.5v.07c0,.39,.31,.5,.92,.5h.94c.66,0,.95-.15,.95-.67v-.41c0-.44-.27-.68-.89-.68h-1.75v-.02Zm-5.05,.98c0,.56,.28,.78,1.02,.78h1.61v-.48h-1.49c-.18,0-.3-.08-.3-.33v-.15c0-.23,.11-.32,.29-.32h1.49v-.48h-1.63c-.72,0-1,.3-1,.79v.2h.01Zm2.88-1.27V3.54h1.84v-.48h-.99V1.49s-.85,0-.85,0ZM3.38,2.64V1.49h-.48c-.3,0-.47,.12-.64,.26L0,3.54H1.03l1.5-1.21v1.21h.7l1.45-1.22v1.22h.86V1.49h-.47c-.25,0-.43,.1-.61,.25l-1.08,.9h0Z"/>
    
  <path d="M23.31,0c-.47,0-1.14,.14-1.86,.4-.6,.22-1.2,.5-1.84,.91,.38-.15,1.12-.33,1.73-.33,.83,0,1.42,.32,.55,1.43,2.56-1.68,2.49-2.41,1.42-2.41"/>
  
</svg>